<svg viewBox="0 0 100 70" class="gl-bench">

<rect x="0" y="0" width="100" height="70" rx="26.5" ry="26.5" id="gl-bench-rect"
  fill="hsla(120, 50%, 60%, 0.65)"/>

<text x="26.5" y="22" class="gl-bench-text" font-size="0.7em" id="gl-bench-cpu">00%</text>
<text x="26.5" y="34" class="gl-bench-text" font-size="0.7em">CPU</text>
<circle cx="26.5" cy="26.5" r="20" stroke-width="3.5"
  fill="none" stroke="black" style="opacity:0.4"/>
<path d="M21.09 37.0 a 15.9155 -15.9155 0 0 1 0 -31.831 a 15.9155 -15.9155
  0 0 1 0 31.831" fill="none" stroke="black" stroke-width="2.6" opacity="0.5"
  transform="scale(1.25663)" stroke-dasharray="0, 100" id="gl-bench-cpu-progress"/>

<circle cx="73.5" cy="26.5" r="20" stroke-width="3.5"
  fill="none" stroke="black" style="opacity:0.4"/>
<text x="73.5" y="22" class="gl-bench-text" font-size="0.7em" id="gl-bench-gpu">00%</text>
<text x="73.5" y="34" class="gl-bench-text" font-size="0.7em">GPU</text>
<path d="M58.59 37.0 a 15.9155 -15.9155 0 0 1 0 -31.831 a 15.9155 -15.9155
  0 0 1 0 31.831" fill="none" stroke="black" stroke-width="2.6" opacity="0.5"
  transform="scale(1.25663)" stroke-dasharray="0, 100" id="gl-bench-gpu-progress"/>

<text x="50" y="59" class="gl-bench-text" font-size=".8em" id="gl-bench-fps">00 FPS</text>
<circle cx="18" cy="58" r="3" style="opacity:0.55"/>
<circle cx="82" cy="58" r="3" style="opacity:0.55"/>

</svg>